<svg xmlns="http://www.w3.org/2000/svg"  viewBox="0 0 50 50" width="50px" height="50px" baseProfile="basic"><path fill="#16d6fa" d="M26,48C13.318,48,3,37.683,3,25S13.318,2,26,2s23,10.317,23,23S38.682,48,26,48z M26,6	C15.523,6,7,14.523,7,25s8.523,19,19,19s19-8.523,19-19S36.477,6,26,6z"/><circle cx="37.5" cy="14.5" r="3.5" fill="#16d6fa"/><rect width="21.506" height="4" x="10.922" y="30.895" fill="#16d6fa" transform="rotate(-70.014 21.673 32.893)"/><rect width="4.001" height="29.411" x="11.5" y="14.295" fill="#16d6fa" transform="rotate(-17.82 13.497 29.002)"/><path fill="#16d6fa" d="M34.879,43.684l-3.759-1.367l8-22c0.596-1.926,0.665-3.487,0.164-4.305	c-0.118-0.192-0.477-0.778-1.966-1.035l0.68-3.941c2.173,0.374,3.753,1.346,4.698,2.888c1.159,1.893,1.229,4.401,0.215,7.67	L34.879,43.684z"/><rect width="4.001" height="29.411" x="25.5" y="14.295" fill="#16d6fa" transform="rotate(-17.82 27.498 29.003)"/><rect width="10" height="4" x="19" y="13" fill="#16d6fa"/><rect width="9" height="4" x="6" y="13" fill="#16d6fa"/><path fill="#00a4ff" d="M29.999,43.327l1.23,3.825c0.534-0.15,1.061-0.315,1.578-0.502l1.949-5.36	C33.286,42.175,31.691,42.864,29.999,43.327z"/><path fill="#00a4ff" d="M15.368,41.365l1.682,5.233c0.52,0.192,1.05,0.361,1.587,0.515l1.376-3.784	C18.365,42.881,16.808,42.216,15.368,41.365z"/><path fill="#00a4ff" d="M7.542,17.016l0.099,0.31c0.692-1.556,1.579-3.006,2.644-4.31H5.388	c-0.043,0.07-0.085,0.14-0.127,0.21v3.79H7.542z"/></svg>